<?xml version="1.0" encoding="UTF-8"?>
<!DOCTYPE svg PUBLIC "-//W3C//DTD SVG 1.1//EN" "http://www.w3.org/Graphics/SVG/1.1/DTD/svg11.dtd">
<svg xmlns="http://www.w3.org/2000/svg" version="1.1" width="1000px" height="1067px" style="shape-rendering:geometricPrecision; text-rendering:geometricPrecision; image-rendering:optimizeQuality; fill-rule:evenodd; clip-rule:evenodd" xmlns:xlink="http://www.w3.org/1999/xlink">
    <g>
        <path style="opacity:0.997" fill="#c18f2b" d="M 50.5,-0.5 C 145.833,-0.5 241.167,-0.5 336.5,-0.5C 336.5,285.5 336.5,571.5 336.5,857.5C 479.5,857.5 622.5,857.5 765.5,857.5C 746.302,927.293 726.635,996.96 706.5,1066.5C 487.833,1066.5 269.167,1066.5 50.5,1066.5C 68.3199,1030.19 86.1532,993.86 104,957.5C 104.667,674.5 104.667,391.5 104,108.5C 86.1532,72.1402 68.3199,35.8069 50.5,-0.5 Z" />
    </g>
    <g>
        <path style="opacity:0.989" fill="#c18f2b" d="M 999.5,526.5 C 999.5,548.167 999.5,569.833 999.5,591.5C 984.541,749.819 912.207,874.153 782.5,964.5C 794.401,919.59 806.901,874.59 820,829.5C 913.528,717.361 942.862,590.027 908,447.5C 870.536,325.037 794.036,236.204 678.5,181C 582.201,138.55 483.201,131.05 381.5,158.5C 381.333,132.498 381.5,106.498 382,80.5C 532.274,47.2889 670.441,74.4555 796.5,162C 917.592,253.317 985.259,374.817 999.5,526.5 Z" />
    </g>
    <g>
        <path style="opacity:0.997" fill="#c18f2b" d="M 475.5,185.5 C 597.548,180.77 700.382,222.437 784,310.5C 860.858,399.11 890.858,501.776 874,618.5C 860.229,693.88 827.062,759.047 774.5,814C 643.5,814.5 512.5,814.667 381.5,814.5C 381.167,610.832 381.5,407.166 382.5,203.5C 412.934,193.879 443.934,187.879 475.5,185.5 Z" />
    </g>
    <g>
        <path style="opacity:0.973" fill="#c18f2b" d="M -0.5,590.5 C -0.5,569.5 -0.5,548.5 -0.5,527.5C 4.51507,455.45 24.5151,387.783 59.5,324.5C 60.8333,480.5 60.8333,636.5 59.5,792.5C 24.7233,729.508 4.72335,662.175 -0.5,590.5 Z" />
    </g>
</svg>